<svg xmlns="http://www.w3.org/2000/svg" viewBox="0 0 64 64" fill="none">
  <!-- Background gradient -->
  <defs>
    <linearGradient id="grad1" x1="0%" y1="0%" x2="100%" y2="100%">
      <stop offset="0%" style="stop-color:#3b82f6;stop-opacity:1" />
      <stop offset="100%" style="stop-color:#6366f1;stop-opacity:1" />
    </linearGradient>
  </defs>
  
  <!-- Rounded background -->
  <rect width="64" height="64" rx="12" fill="url(#grad1)"/>
  
  <!-- Ticket icon -->
  <path d="M16 20 L48 20 C50 20 52 22 52 24 L52 28 C50 28 48 30 48 32 C48 34 50 36 52 36 L52 40 C52 42 50 44 48 44 L16 44 C14 44 12 42 12 40 L12 36 C14 36 16 34 16 32 C16 30 14 28 12 28 L12 24 C12 22 14 20 16 20 Z" 
        fill="white" 
        stroke="white" 
        stroke-width="1.5"/>
  
  <!-- Ticket perforations -->
  <line x1="28" y1="24" x2="28" y2="40" stroke="url(#grad1)" stroke-width="2" stroke-dasharray="2,3"/>
  
  <!-- Two people/group icon overlay -->
  <circle cx="22" cy="30" r="3" fill="url(#grad1)"/>
  <circle cx="38" cy="30" r="3" fill="url(#grad1)"/>
  <path d="M18 38 C18 35 20 34 22 34 C24 34 26 35 26 38" fill="url(#grad1)"/>
  <path d="M34 38 C34 35 36 34 38 34 C40 34 42 35 42 38" fill="url(#grad1)"/>
</svg>
